<?xml version="1.0" encoding="UTF-8" standalone="no"?>
<svg
   id="Layer_2"
   data-name="Layer 2"
   viewBox="0 0 137.68001 137.67999"
   preserveAspectRatio="none"
   version="1.1"
   sodipodi:docname="sleeping-dino.svg"
   width="137.68001"
   height="137.67999"
   inkscape:version="1.2 (dc2aeda, 2022-05-15)"
   xmlns:inkscape="http://www.inkscape.org/namespaces/inkscape"
   xmlns:sodipodi="http://sodipodi.sourceforge.net/DTD/sodipodi-0.dtd"
   xmlns="http://www.w3.org/2000/svg"
   xmlns:svg="http://www.w3.org/2000/svg">
  <sodipodi:namedview
     id="namedview414"
     pagecolor="#ffffff"
     bordercolor="#666666"
     borderopacity="1.0"
     inkscape:showpageshadow="2"
     inkscape:pageopacity="0.0"
     inkscape:pagecheckerboard="0"
     inkscape:deskcolor="#d1d1d1"
     showgrid="false"
     inkscape:zoom="1.7142442"
     inkscape:cx="65.043241"
     inkscape:cy="68.834999"
     inkscape:window-width="1309"
     inkscape:window-height="456"
     inkscape:window-x="0"
     inkscape:window-y="25"
     inkscape:window-maximized="0"
     inkscape:current-layer="Layer_2" />
  <defs
     id="defs231">
    <style
       id="style224">
      .cls-1 {
        fill: #e0daca;
      }

      .cls-2 {
        fill: #7ecca8;
      }

      .cls-2, .cls-3, .cls-4 {
        stroke-width: .2px;
      }

      .cls-2, .cls-3, .cls-4, .cls-5 {
        stroke-miterlimit: 10;
      }

      .cls-2, .cls-4 {
        stroke: #4a7e46;
      }

      .cls-3 {
        font-family: SegoePrint, 'Segoe Print';
        font-size: 20.18px;
        stroke: #7ecca8;
      }

      .cls-3, .cls-4 {
        fill: #7e99cc;
      }

      .cls-6 {
        fill: #362063;
      }

      .cls-7 {
        fill: #d6eae8;
      }

      .cls-8 {
        fill: #d4e29a;
      }

      .cls-9 {
        opacity: .5;
      }

      .cls-10 {
        fill: #7eb7cc;
      }

      .cls-11 {
        fill: #ccceca;
      }

      .cls-12 {
        opacity: .2;
      }

      .cls-13 {
        fill: #90c965;
      }

      .cls-14 {
        fill: #bffffa;
      }

      .cls-15 {
        fill: #642265;
      }

      .cls-16 {
        fill: #a03a59;
      }

      .cls-5 {
        stroke: #642265;
      }

      .cls-5, .cls-17 {
        fill: #ad4ba6;
      }

      .cls-18 {
        fill: #ffb4de;
      }

      .cls-19 {
        fill: #9ff2ff;
      }

      .cls-20 {
        fill: url(#radial-gradient);
      }

      .cls-21 {
        fill: #a88899;
      }

      .cls-22 {
        fill: #4a7e46;
      }

      .cls-23 {
        fill: #c5b2ca;
      }

      .cls-24 {
        fill: #aad659;
      }

      .cls-25 {
        fill: #9b2f4b;
      }

      .cls-26 {
        fill: #ff35f0;
      }

      .cls-27 {
        fill: #eadfea;
      }

      .cls-28 {
        fill: #781e35;
      }
    </style>
    <radialGradient
       id="radial-gradient"
       cx="77.18"
       cy="68.760002"
       fx="77.18"
       fy="68.760002"
       r="68.760002"
       gradientUnits="userSpaceOnUse"
       gradientTransform="translate(-8.4199982)">
      <stop
         offset="0"
         stop-color="#414141"
         id="stop226" />
      <stop
         offset="1"
         stop-color="#333342"
         id="stop228" />
    </radialGradient>
  </defs>
  <circle
     class="cls-20"
     cx="68.760002"
     cy="68.760002"
     r="68.760002"
     id="circle233"
     style="fill:url(#radial-gradient)" />
  <path
     class="cls-25"
     d="m 63.180002,28.57 c -0.28,3.22 3.39,10.39 3.39,10.39 l 13.11,16.89 21.889998,10 4.33,-4.22 -24.559998,-27.44 -9,-8.33 -7.67,0.33 c 0,0 -1.22,-0.83 -1.5,2.39 z"
     id="path235" />
  <path
     class="cls-28"
     d="m 78.240002,49.29 c 0,0 2.11,0.5 2.72,-3.17 0.61,-3.67 -0.22,-5.83 -0.22,-5.83 0,0 0.28,2.06 -0.56,3.33 0,0 0.83,-4.06 -0.61,-5.61 -1.44,-1.55 -5.28,-5.56 -5.28,-5.56 l -4.61,-5.11 11.44,2.33 11.44,13.89 11.109998,20.28 -10.279998,-1.06 -11.33,-9 -3.83,-4.5 z"
     id="path237" />
  <path
     class="cls-16"
     d="m 88.770002,55.84 -9.7,-9.33 -7.19,-5.33 c 0,0 -3.56,-1.63 -4.96,1.56 -1.4,3.19 -2,10.07 -2,10.07 0,0 -1.41,2 -1.41,4.07 0,2.07 0.89,2.74 -0.22,5.04 -1.11,2.3 -4.37,2.74 -4.37,2.74 0,0 0.89,2.15 3.19,1.93 2.3,-0.22 5.85,-2.22 6.52,-4 0.67,-1.78 0.3,-2.22 1.11,-4.3 0.81,-2.08 7.63,-4.37 7.63,-4.37 l 11.41,1.93 z"
     id="path239" />
  <path
     class="cls-25"
     d="m 61.510002,65.33 c 1.7,-0.89 2,-1.41 2.81,-2.74 0.81,-1.33 0.81,-3.7 0.81,-3.7 0,0 -0.52,-1.7 -0.52,-2.67 0,-0.97 1.26,-4.52 1.26,-4.52 0,0 2.44,-1.11 2.67,-1.04 0.23,0.07 2.67,4.22 2.67,4.22 l -1.7,3.11 c 0,0 -0.59,2.74 -1.56,4.74 -1.41,3.26 -8,4.37 -6.44,2.59 z"
     id="path241" />
  <path
     class="cls-8"
     d="m 59.290002,41.79 c 0,0 1.39,2.81 2,3.91 0.61,1.1 5.39,8.15 5.39,8.15 0,0 3.67,4.39 3.94,5.83 0.27,1.44 1,2.61 0.44,3.72 -0.56,1.11 -3.33,4.89 -3.33,4.89 0,0 -12.83,7.28 -17.11,16.78 -4.28,9.5 -6.22,26.17 -6.22,26.17 l 0.39,14.83 -1.06,6.22 7.5,2.78 12.28,2.11 14.61,-0.44 2.33,-3.22 -10.33,-11 -10,-10.78 5.33,-3.44 0.72,-9.17 -4.94,-5.06 6.78,-9.61 25.8,-11.13 -11.02,-9.59 -14.94,-19.5 -6.67,-3.28 z"
     id="path243" />
  <path
     id="FeatherLower"
     class="cls-17"
     d="m 106.64,61.12 c 0.24,0.51 7.07,7.87 8.49,12.04 1.42,4.17 3.06,8.44 -3.16,18.89 0,0 -4.8,-6.62 -5.15,-11.22 -0.35,-4.6 -0.18,-19.71 -0.18,-19.71 z" />
  <path
     id="Feather_Upper"
     class="cls-15"
     d="m 106.6,66.47 c 0,0 2.38,8.48 2.57,9.54 0.19,1.06 -1.42,2.51 -1.25,2.71 0.17,0.2 1.16,-0.85 1.16,-0.85 0,0 -1.27,2.79 -1.1,3.1 0.17,0.31 0.25,2.77 0.52,2.96 0.27,0.19 1.25,-3.76 1.49,-3.54 0.28,0.31 0.52,1.38 0.72,2.66 0.05,0.31 -0.81,2.16 -0.76,2.48 0.06,0.41 0.94,-2.22 1.04,-1.89 0.45,1.5 0.44,5.18 0.6,5.26 0.35,0.17 1.48,-3.01 1.7,-3.65 0.22,-0.64 -0.97,-3.02 -0.85,-3.16 0.12,-0.14 1.63,1.12 1.78,0.9 0.15,-0.22 0.66,-2 0.4,-2.88 -0.26,-0.88 -2.02,-2.07 -2.02,-2.07 0,0 2.19,1.28 2.47,1.13 0.28,-0.15 -2.51,-1.86 -2.51,-1.86 0,0 2.29,0.67 2.52,0.47 0.12,-0.1 -1.54,-1.04 -1.89,-2.1 1.35,-0.18 1.69,0.17 1.55,-0.45 0.51,-0.73 -3.67,-8.65 -3.67,-8.65 0,0 4.65,4.95 5.29,10.95 0.82,7.67 -4.26,15.35 -4.26,15.35 0,0 -4.69,-6.08 -5.49,-11.38 -0.8,-5.31 0,-15.05 0,-15.05 z" />
  <path
     id="FeatherLower-2"
     data-name="FeatherLower"
     class="cls-17"
     d="m 107.1,58.37 c 0.4,0.4 9.35,4.95 12.12,8.37 2.77,3.42 5.78,6.87 3.55,18.82 0,0 -6.79,-4.56 -8.7,-8.76 -1.91,-4.2 -6.97,-18.44 -6.97,-18.44 z" />
  <path
     id="Feather_Upper-2"
     data-name="Feather_Upper"
     class="cls-15"
     d="m 108.91,63.4 c 0,0 5.16,7.14 5.7,8.07 0.54,0.93 -0.46,2.85 -0.24,2.98 0.22,0.13 0.8,-1.2 0.8,-1.2 0,0 -0.59,1.74 -0.29,2.29 0.3,0.55 0.97,-2.12 0.96,-1.7 0,0.72 -0.7,2.51 -0.63,2.7 0.15,0.41 0.44,1.23 0.97,1.12 0.53,-0.11 0.42,-2.48 0.73,-2.35 0.21,0.11 -0.43,4.09 2.61,6.61 0.44,0.07 -1.28,-4.85 -1,-4.35 1.22,2.19 2.58,5.16 2.84,5.18 0.39,0.03 0.04,-3.89 0.33,-4.02 0.29,-0.13 -1.95,-2.5 -1.88,-2.67 0.07,-0.17 1.92,0.49 1.98,0.24 0.06,-0.25 -0.07,-2.1 -0.62,-2.84 -0.55,-0.74 -2.61,-1.25 -2.61,-1.25 0,0 2.5,0.44 2.71,0.21 0.21,-0.23 -3,-0.88 -3,-0.88 0,0 2.38,-0.16 2.52,-0.42 0.08,-0.14 -1.81,-0.44 -2.5,-1.32 1.21,-0.63 1.64,-0.42 1.3,-0.95 0.23,-0.87 -6.43,-6.85 -6.43,-6.85 0,0 6.07,3.05 8.74,8.45 3.41,6.91 1.29,15.88 1.29,15.88 0,0 -6.5,-4.08 -9.08,-8.79 -2.58,-4.71 -5.19,-14.13 -5.19,-14.13 z" />
  <path
     id="FeatherLower-3"
     data-name="FeatherLower"
     class="cls-17"
     d="m 105.64,49.86 c 0.48,0.29 10.26,2.58 13.77,5.25 3.51,2.67 7.25,5.3 7.92,17.44 0,0 -7.68,-2.81 -10.53,-6.44 -2.85,-3.63 -11.15,-16.25 -11.15,-16.25 z" />
  <path
     id="Feather_Upper-3"
     data-name="Feather_Upper"
     class="cls-15"
     d="m 108.6,54.32 c 0,0 5.54,4.37 6.29,5.15 0.75,0.78 1.39,4.21 1.65,4.28 0.26,0.07 0.49,-1.35 0.49,-1.35 0,0 -0.11,1.04 0.27,1.81 0.38,0.77 2.3,3.53 2.63,3.54 0.33,0.01 -1.06,-3.82 -0.73,-3.77 0.99,0.23 1.2,3.55 2.36,4.56 1.16,1.01 2.73,1.32 3.72,1.62 0.47,-0.58 -2.68,-4.32 -2.53,-4.43 0.15,-0.11 1.79,0.54 1.9,0.45 0.1,-0.07 0.12,-1.31 -0.35,-1.67 -0.74,-0.19 -2.13,-0.36 -2.11,-0.47 0.03,-0.18 1.98,0.02 1.98,-0.24 0,-0.26 -0.2,-0.74 -0.9,-1.32 -0.7,-0.58 -2.71,-1.5 -3.21,-1.88 -0.5,-0.38 2.53,-0.16 2.68,-0.44 0.15,-0.28 -3.12,-0.15 -3.12,-0.15 0,0 2.27,-0.72 2.35,-1.01 0.04,-0.15 -1.86,0 -2.74,-0.69 1.09,-0.85 2.9,0.27 1.04,-1.24 0,-0.2 -2.18,-0.08 -2.37,-0.26 -0.19,-0.18 2.07,-0.26 0.7,-1.22 -2.18,-1.53 -6.21,-3.64 -6.21,-3.64 0,0 6.62,1.52 10.5,6.13 4.96,5.91 5.03,15.12 5.03,15.12 0,0 -7.29,-2.42 -10.91,-6.38 -3.63,-3.96 -8.4,-12.49 -8.4,-12.49 z" />
  <path
     id="FeatherLower-4"
     data-name="FeatherLower"
     class="cls-17"
     d="m 95.880002,35.4 c 0.52,0.22 10.519998,1.11 14.369998,3.26 3.85,2.15 7.93,4.22 10.3,16.15 0,0 -8,-1.7 -11.33,-4.89 C 105.89,46.73 95.890002,35.4 95.890002,35.4 Z" />
  <path
     id="Feather_Upper-4"
     data-name="Feather_Upper"
     class="cls-15"
     d="m 99.440002,39.4 c 0,0 7.439998,4.7 8.299998,5.37 0.86,0.67 0.63,2.81 0.89,2.85 0.26,0.04 0.3,-1.41 0.3,-1.41 0,0 0.93,2.93 1.26,3.04 0.33,0.11 2.04,1.89 2.37,1.85 0.33,-0.04 -1.59,-3.63 -1.26,-3.63 1.22,0.11 6.52,5.37 6.89,5.26 0.37,-0.11 -1.41,-3.63 -1.19,-3.85 0.22,-0.22 -2.74,-1.59 -2.74,-1.78 0,-0.19 1.96,-0.26 1.93,-0.52 -0.03,-0.26 -0.85,-1.93 -1.63,-2.41 -0.78,-0.48 -2.89,-0.19 -2.89,-0.19 0,0 2.48,-0.52 2.59,-0.81 0.11,-0.29 -3.11,0.3 -3.11,0.3 0,0 2.15,-1.04 2.19,-1.33 0.02,-0.15 -1.84,0.26 -2.81,-0.3 0.89,-1.04 1.37,-1 0.85,-1.37 -0.11,-0.89 -8.52,-3.96 -8.52,-3.96 0,0 6.77,0.57 11.26,4.59 5.74,5.15 7.11,14.26 7.11,14.26 0,0 -7.56,-1.37 -11.7,-4.78 C 105.39,47.17 99.460002,39.39 99.460002,39.39 Z" />
  <g
     id="g257"
     transform="translate(-8.4199982)">
    <path
       class="cls-13"
       d="m 105.04,130.81 c 0,0 1.04,-4.59 8.3,-12.74 7.26,-8.15 2.22,-13.19 -2.07,-16.59 -4.29,-3.4 -10.22,-3.11 -10.22,-3.11 0,0 2.37,-3.56 10.67,-0.15 8.3,3.41 12.3,7.11 13.93,10.67 1.63,3.56 0.59,7.7 0.59,7.7 0,0 -14.37,13.63 -21.19,14.22 z"
       id="path253" />
    <path
       class="cls-22"
       d="m 104.97,130.87 c -0.04,-0.19 0.05,-0.29 0.08,-0.44 1.24,-3.51 3.45,-6.6 5.71,-9.52 2.31,-2.94 5.38,-5.65 5.98,-9.5 0.64,-3.91 -2.28,-7.14 -5.15,-9.4 -2.89,-2.45 -6.8,-3.43 -10.52,-3.39 0,0 -0.5,0.02 -0.51,0.02 0.92,-1.69 2.88,-2.35 4.67,-2.37 4.78,0.1 9.1,2.53 13.15,4.81 5.68,3.39 9.8,8.66 7.92,15.58 -4.75,4.36 -9.7,8.57 -15.24,11.89 -1.85,1.03 -3.94,2.16 -6.08,2.33 v 0 z m 0.15,-0.13 c 4.18,-0.87 7.77,-3.5 11.18,-5.95 3.38,-2.5 6.88,-5.54 9.83,-8.23 1.92,-8.64 -5.25,-13.81 -12.23,-16.92 -3.79,-1.64 -8.95,-3.93 -12.64,-1.14 0,0 -0.23,-0.4 -0.23,-0.4 1.96,-0.02 3.88,0.25 5.74,0.82 4.89,1.54 11.23,6.87 10.32,12.54 -0.64,3.94 -3.76,6.66 -6.11,9.62 -2.34,2.91 -4.6,6.25 -5.85,9.66 v 0 z"
       id="path255" />
  </g>
  <path
     class="cls-1"
     d="m 68.770002,27.33 c -1.85,0.74 -2.59,5 -2.22,5.11 0.37,0.11 1.7,-2.81 3.63,-3.85 1.93,-1.04 0.44,-2 -1.41,-1.26 z"
     id="path259" />
  <path
     class="cls-1"
     d="m 66.210002,26.1 c -1.67,1.09 -1.61,5.41 -1.17,5.45 0.44,0.04 1.12,-3.09 2.8,-4.49 1.68,-1.4 0.04,-2.05 -1.63,-0.96 z"
     id="path261" />
  <path
     class="cls-1"
     d="m 73.560002,29.68 c -0.87,1.09 -2.47,3.56 -1.86,3.96 0.61,0.4 2.1,-1.49 3.03,-2.99 0.93,-1.5 -0.31,-2.07 -1.18,-0.98 z"
     id="path263" />
  <path
     class="cls-1"
     d="m 76.110002,31.18 c -1.04,1.41 -2.52,4.93 -2.22,5.11 0.3,0.18 2.52,-1.93 3.63,-3.85 1.11,-1.92 -0.37,-2.67 -1.41,-1.26 z"
     id="path265" />
  <path
     class="cls-1"
     d="m 78.990002,32.29 c -1.04,1.41 -2.7,4.7 -2.22,5.11 0.48,0.41 2.52,-1.93 3.63,-3.85 1.11,-1.92 -0.37,-2.67 -1.41,-1.26 z"
     id="path267" />
  <path
     class="cls-1"
     d="m 80.730002,35.66 c -0.79,1.06 -1.77,3.63 -1.7,3.83 0.07,0.2 1.93,-1.44 2.77,-2.89 0.84,-1.45 -0.28,-2 -1.08,-0.94 z"
     id="path269" />
  <path
     class="cls-1"
     d="m 83.400002,39.14 c -0.79,1.06 -1.77,3.63 -1.7,3.83 0.07,0.2 1.93,-1.44 2.77,-2.89 0.84,-1.45 -0.28,-2 -1.08,-0.94 z"
     id="path271" />
  <path
     class="cls-1"
     d="m 78.760002,51.49 c 0.86,-1 2.02,-3.5 1.95,-3.71 -0.07,-0.21 -2.02,1.31 -2.96,2.7 -0.94,1.39 0.15,2.01 1.01,1.01 z"
     id="path273" />
  <path
     class="cls-1"
     d="m 78.180002,48.12 c 0.86,-1 2.02,-3.5 1.95,-3.71 -0.07,-0.21 -2.02,1.31 -2.96,2.7 -0.94,1.39 0.15,2.01 1.01,1.01 z"
     id="path275" />
  <path
     class="cls-1"
     d="m 75.740002,47.45 c 0.86,-1 2.02,-3.5 1.95,-3.71 -0.07,-0.21 -2.02,1.31 -2.96,2.7 -0.94,1.39 0.15,2.01 1.01,1.01 z"
     id="path277" />
  <path
     class="cls-1"
     d="m 73.900002,46.17 c 0.86,-1 2.02,-3.5 1.95,-3.71 -0.07,-0.21 -2.02,1.31 -2.96,2.7 -0.94,1.39 0.15,2.01 1.01,1.01 z"
     id="path279" />
  <path
     class="cls-1"
     d="m 71.640002,44.56 c 0.86,-1 2.02,-3.5 1.95,-3.71 -0.07,-0.21 -2.02,1.31 -2.96,2.7 -0.94,1.39 0.15,2.01 1.01,1.01 z"
     id="path281" />
  <path
     class="cls-23"
     d="m 63.300002,32.99 c -0.37,1.35 1.28,2.95 1.51,2.83 0.23,-0.12 -0.89,-2.05 0.04,-3.75 -0.92,-1.19 -1.18,-0.43 -1.55,0.92 z"
     id="path283" />
  <path
     class="cls-11"
     d="m 62.750002,31.28 c -0.37,1.35 0.98,3.13 1.51,2.83 0.53,-0.3 -0.65,-1.85 -0.39,-3.33 0.26,-1.48 -0.75,-0.84 -1.12,0.51 z"
     id="path285" />
  <path
     class="cls-1"
     d="m 71.040002,28.34 c -1.25,1.51 -3.05,5.31 -2.68,5.5 0.37,0.19 3.04,-2.07 4.38,-4.14 1.34,-2.07 -0.45,-2.87 -1.7,-1.35 z"
     id="path287" />
  <path
     class="cls-1"
     d="m 63.820002,38.33 c 0.41,-1.26 1.68,-3.34 1.11,-3.53 -0.57,-0.19 -2.1,1.35 -2.44,2.99 -0.34,1.64 0.92,1.8 1.32,0.54 z"
     id="path289" />
  <path
     class="cls-1"
     d="m 65.710002,39.02 c 0.41,-1.26 1.68,-3.34 1.11,-3.53 -0.57,-0.19 -2.1,1.35 -2.44,2.99 -0.34,1.64 0.92,1.8 1.32,0.54 z"
     id="path291" />
  <path
     class="cls-1"
     d="m 67.970002,38.95 c 0.68,-1.08 1.82,-3.07 1.67,-3.3 -0.15,-0.23 -2.3,0.98 -2.89,2.55 -0.59,1.57 0.54,1.84 1.22,0.75 z"
     id="path293" />
  <path
     class="cls-1"
     d="m 68.700002,41.3 c 0.75,-1.04 2.02,-2.95 1.88,-3.19 -0.14,-0.24 -2.36,0.83 -3.05,2.36 -0.69,1.53 0.42,1.87 1.17,0.83 z"
     id="path295" />
  <path
     class="cls-1"
     d="m 70.390002,43.4 c 0.75,-1.04 2.02,-2.95 1.88,-3.19 -0.14,-0.24 -2.36,0.83 -3.05,2.36 -0.69,1.53 0.42,1.87 1.17,0.83 z"
     id="path297" />
  <path
     class="cls-1"
     d="m 62.040002,37.59 c 0.41,-1.26 1.68,-3.34 1.11,-3.53 -0.57,-0.19 -2.1,1.35 -2.44,2.99 -0.34,1.64 0.92,1.8 1.32,0.54 z"
     id="path299" />
  <path
     class="cls-1"
     d="m 61.050002,37.07 c 0.01,-1.32 0.61,-3.69 0,-3.7 -0.61,-0.01 -1.61,1.91 -1.43,3.58 0.18,1.67 1.41,1.44 1.43,0.12 z"
     id="path301" />
  <path
     class="cls-1"
     d="m 60.120002,37.57 c -0.31,-1.28 -0.3,-3.73 -0.89,-3.59 -0.59,0.14 -1.1,2.24 -0.53,3.82 0.57,1.58 1.72,1.06 1.41,-0.23 z"
     id="path303" />
  <g
     id="g309"
     transform="translate(-8.4199982)">
    <path
       class="cls-13"
       d="m 87.12,136.59 8.74,-1.93 c 0,0 -1.48,-11.85 -5.93,-24.74 1.48,-2.52 2.22,-6.96 0.15,-11.85 -2.07,-4.89 -4.89,-5.63 -4.89,-5.63 0,0 0.44,-4 5.19,-3.7 4.89,0.74 6.67,1.33 10.52,1.04 7.11,0.15 13.7,-2.54 20.48,-14.43 1.48,-3.26 3.22,-6.17 1.15,-16.69 C 117.34,38.36 95.65,24.41 90.09,21.47 84.53,18.53 73.55,17.81 71,25.31 c -0.11,0.94 -0.46,3.56 0.43,5.94 0,0 -0.44,-2.74 0,-3.26 0.44,-0.52 0.74,-0.59 2.22,-0.89 1.48,-0.3 5.78,0.89 7.41,2.22 1.63,1.33 8.89,7.56 17.93,23.56 2.37,2.96 8.89,9.48 8.89,9.48 0,0 -6.81,-6.07 -21.48,-13.93 -5.04,-5.19 -9.04,-8.44 -11.11,-9.93 -1.63,-1.78 -9.65,-5.68 -8.89,-0.44 1.19,8.15 11.7,19.26 12.74,22.07 1.04,2.81 -1.93,7.48 -3.56,8.37 -1.63,0.89 -14,8.81 -16.59,16.3 -3.19,1.04 -6.44,2.15 -10.81,6.59 -3.11,2.22 -0.74,7.56 -0.74,7.56 l 0.74,3.56 -3.56,7.85 1.63,13.33 7.26,4.3 4.44,-14.22 c 0,0 -1.48,-10.52 -2.37,-15.7 0.15,-3.56 1.11,-6.81 3.85,-13.04 2.74,-6.23 11.64,-12.95 14.3,-14.74 3.02,-2.04 4,-2.81 5.33,-5.26 2.22,-3.7 -0.15,-6.59 -2.15,-9.19 -2,-2.6 -6.52,-9.11 -7.19,-10.15 -0.67,-1.04 -2.96,-5.26 1.7,-1.93 3.78,2.37 7.26,6.96 14.67,14.3 3.26,6.07 7.26,10.37 12.74,14.37 -4.59,5.7 -11.7,2.81 -23.7,11.26 -12,8.45 -8.89,12.15 -8.89,12.15 0,0 7.41,3.85 7.56,6.52 0.15,2.67 -1.19,4.74 -1.19,4.74 l -7.56,3.11 -3.7,2.96 -2.07,1.63 c 0,0 -1.63,5.48 2.37,5.33 4,-0.15 9.48,1.04 9.48,1.04 l 16,15.41 z"
       id="path305" />
    <path
       class="cls-22"
       d="m 87.15,136.49 c 0,0 8.69,-1.93 8.69,-1.93 0,0 -0.08,0.11 -0.08,0.11 -1.2,-8.4 -3.2,-16.69 -5.92,-24.72 2.37,-5.46 0.37,-14.04 -4.67,-17.42 0,0 -0.09,-0.05 -0.09,-0.05 0.17,-1.22 0.75,-2.41 1.8,-3.15 2.62,-1.8 5.93,-0.4 8.79,-0.18 1.75,0.24 3.49,0.26 5.24,0.09 6.75,0.26 12.44,-3.46 16.31,-8.77 5.71,-7.25 6.63,-12.31 4.88,-21.41 -3.03,-12.74 -12.21,-23.13 -22.37,-30.97 -2.95,-2.27 -6.07,-4.33 -9.32,-6.1 -4.74,-2.41 -10.98,-3.23 -15.75,-0.58 -1.52,0.92 -2.72,2.32 -3.3,4.02 -0.25,1.57 -0.4,3.95 0.16,5.78 0,0 -0.19,0.05 -0.19,0.05 -0.13,-1.11 -0.62,-2.45 0,-3.48 2.08,-1.73 5.09,-0.75 7.37,0.04 3.44,1.28 5.78,4.45 8.22,7.06 6.28,7.22 10.63,15.56 16.68,22.58 1.42,1.63 2.85,3.26 4.35,4.83 0,0 -0.14,0.15 -0.14,0.15 C 101.16,57.03 93.64,52.81 86.1,48.79 82.98,44.91 79.24,41.53 75.14,38.71 c -1.57,-1.38 -3.71,-2.33 -5.76,-2.77 -0.96,-0.13 -2.06,-0.24 -2.61,0.6 -0.4,0.97 -0.02,2.06 0.19,3.06 0.38,1.4 0.93,2.75 1.57,4.06 2.59,5.26 6.32,9.83 9.71,14.63 0.4,0.62 0.84,1.22 1.09,1.96 0.65,2.96 -1.13,6 -3.18,8.01 -0.52,0.41 -1.32,0.82 -1.87,1.19 -5.92,4.05 -12.39,8.62 -15.23,15.44 -4.1,1.3 -7.73,3.61 -10.67,6.73 -0.52,0.38 -0.94,0.88 -1.17,1.49 -0.71,1.85 -0.21,3.98 0.45,5.78 0.22,1.19 0.42,2.39 0.6,3.6 0,0 0,0 0,0 v 0.04 c 0,0 0,0.03 0,0.03 0,0 -3.56,7.85 -3.56,7.85 -0.03,-0.23 1.66,13.31 1.64,13.28 -0.32,-0.28 7.28,4.28 7.21,4.22 0,0 -0.15,0.06 -0.15,0.06 0,0.02 4.47,-14.37 4.44,-14.18 -0.86,-5.13 -1.77,-10.56 -3.04,-15.59 0.12,-4 2.01,-7.63 3.61,-11.18 2.83,-7.21 9.09,-12.34 15.2,-16.77 3.07,-1.93 6.48,-4.89 6.2,-8.84 -0.66,-3.66 -4.06,-6.48 -5.96,-9.61 0,0 -3.28,-4.7 -3.28,-4.7 -0.8,-1.18 -1.68,-2.37 -2.04,-3.78 -0.34,-2.15 2.65,0.26 3.31,0.66 2.38,1.61 4.35,3.74 6.34,5.79 2.63,2.77 5.26,5.55 7.98,8.23 1.73,2.72 3.61,5.33 5.83,7.65 1.91,2.02 4.02,3.87 6.24,5.55 0.32,0.24 0.7,0.4 0.65,1.14 0,0 0,0.01 0,0.01 l 0.02,0.15 c -1.12,1.41 -2.64,2.46 -4.3,3.12 -5,1.77 -10.33,2.7 -14.95,5.43 -3.09,1.71 -5.99,3.79 -8.64,6.11 -1.58,1.34 -6.51,6.32 -4.16,8.17 0,0 0,-0.02 0,-0.02 0,0 -0.25,-0.2 -0.25,-0.2 2.7,1.76 5.74,3.43 7.32,6.37 0.57,1.86 -0.27,4.16 -1.29,5.7 0.02,-0.01 -7.65,3.16 -7.53,3.1 -1.92,1.54 -3.84,3.08 -5.78,4.59 -0.19,0.97 -0.55,2.81 0.03,3.94 0.61,1.43 2.26,1.2 3.55,1.21 2.77,0.08 5.51,0.5 8.23,1.04 0.06,0 15.96,15.38 16.01,15.41 v 0 z m -0.05,0.19 c 0,0 -16.21,-15.54 -15.99,-15.41 -2.7,-0.54 -5.44,-0.96 -8.19,-1.04 -1.32,0.01 -3.11,0.19 -3.73,-1.32 -0.57,-1.33 -0.34,-2.81 0,-4.17 1.95,-1.52 3.87,-3.07 5.8,-4.61 0,0 7.56,-3.13 7.58,-3.13 0.59,-1.35 1.35,-3.57 0.69,-5.21 -1.75,-2.55 -4.89,-3.93 -7.57,-5.31 -0.39,-0.63 -0.33,-1.26 -0.26,-1.9 1.18,-6 9.1,-10.9 14.09,-13.79 3.14,-1.69 6.52,-2.88 9.96,-3.76 3.35,-0.9 7.06,-1.75 9.27,-4.66 0,0 0.02,0.15 0.02,0.15 0,0 0,0 0,0 -0.69,0.26 -0.96,-0.07 -1.29,-0.31 0,0 -0.96,-0.76 -0.96,-0.76 -4.47,-3.55 -8.18,-8.12 -10.5,-13.35 -2.61,-2.57 -5.34,-5.49 -7.93,-8.23 -2.62,-2.71 -5.28,-5.64 -8.74,-7.24 -2.06,-0.53 0.96,3.83 1.36,4.38 0,0 3.28,4.69 3.28,4.69 1.11,1.55 2.22,3.11 3.39,4.61 1.75,2.15 3.52,5.09 2.18,7.9 -1.12,2.74 -3.4,4.65 -5.83,6.17 -6.03,4.43 -12.4,9.48 -15.05,16.73 -1.35,3.33 -2.34,8 -2.33,10.81 0.44,5.18 1.09,10.64 1.7,15.82 0.02,0.05 -4.44,14.22 -4.45,14.27 0,0 -0.04,0.12 -0.04,0.12 0,0 -0.11,-0.06 -0.11,-0.06 -0.04,-0.03 -7.27,-4.29 -7.3,-4.32 -0.03,0 -1.61,-13.36 -1.64,-13.38 0,0 0,-0.03 0,-0.03 0,0 0.01,-0.03 0.01,-0.03 0.02,0.03 3.6,-8.06 3.55,-7.79 -0.31,-1.08 -0.66,-2.58 -0.87,-3.48 -0.57,-1.28 -0.93,-2.64 -0.95,-4.07 -0.11,-1.38 0.65,-3.17 1.69,-3.8 2.86,-3.05 7.13,-5.64 10.94,-6.41 2.21,-5.55 7.08,-9.43 11.65,-13.01 1.72,-1.34 3.64,-2.51 5.45,-3.71 1.94,-1.93 3.66,-4.91 3.03,-7.71 -0.22,-0.65 -0.66,-1.26 -1.06,-1.87 -3.41,-4.75 -7.19,-9.32 -9.85,-14.62 -0.98,-2.27 -2.5,-5.02 -1.83,-7.55 0.93,-2.16 3.78,-1.08 5.4,-0.42 1.3,0.56 2.85,1.5 3.73,2.43 2.99,2.27 5.64,4.89 8.46,7.36 0.75,0.66 2.41,2 2.73,2.37 1.71,0.73 3.9,2.33 5.56,3.22 5.49,3.33 10.9,6.84 15.77,11.03 0,0 -0.14,0.15 -0.14,0.15 0,0 -4.73,-4.48 -4.73,-4.48 -1.53,-1.61 -3.34,-2.91 -4.76,-4.63 -0.9,-1.57 -1.44,-3.37 -2.35,-4.95 -3.68,-6.18 -7.92,-12.11 -13.09,-17.13 -1.83,-1.99 -4.24,-3.25 -6.91,-3.73 -1.3,-0.32 -2.64,-0.25 -3.84,0.2 -0.35,0.19 -0.63,0.39 -0.66,0.85 -0.09,0.85 -0.01,1.77 0.07,2.66 0,0 -0.19,0.05 -0.19,0.05 -0.42,-0.93 -0.66,-1.94 -0.75,-2.96 -0.86,-5.68 3.98,-8.97 9.14,-9.29 3.79,-0.27 7.67,0.55 10.99,2.41 6.47,3.8 12.37,8.47 17.71,13.72 5.3,5.29 9.94,11.37 12.86,18.31 2.16,5.22 3.28,11.05 2.57,16.71 -0.29,1.95 -1.11,3.8 -1.9,5.48 -2.23,3.88 -4.8,7.66 -8.35,10.5 -6.53,5.56 -15.48,4.56 -23.25,2.88 -2.26,-0.27 -4.57,0.92 -5.04,3.4 0,0 -0.07,-0.11 -0.07,-0.11 6.43,1.97 8.53,12.79 4.81,17.55 2.73,8.05 4.73,16.34 5.93,24.76 0,0 0.01,0.09 0.01,0.09 0,0 -0.09,0.02 -0.09,0.02 0,0 -8.79,1.92 -8.79,1.92 v 0 z"
       id="path307" />
  </g>
  <g
     id="g315"
     transform="translate(-8.4199982)">
    <path
       class="cls-17"
       d="m 69.04,106.36 c -6,-0.8 -8.3,3.56 -8.3,3.56 0,0 -1.41,2.44 -1.33,3.85 0.08,1.41 1.44,0.27 2.37,0.74 0.96,0.49 -0.2,2.83 -0.89,4.89 -0.69,2.06 -2.67,6.09 -1.93,9.63 0.74,3.54 2.67,5.93 2.67,5.93 l 6.37,1.63 c 0,0 15.26,2.37 30.07,-2.67 14.81,-5.04 16.52,-9.41 16.52,-9.41 0,0 7.3,-10.07 6.59,-10.15 -4.76,2.54 -12.59,9.5 -17.48,10.98 -3.73,-3.68 -3,-6.63 -12.74,-11.28 0,0 -7.15,-1.89 -10.04,-3.11 -2.89,-1.22 -5.89,-3.8 -11.89,-4.59 z"
       id="path311" />
    <path
       class="cls-15"
       d="m 69.03,106.47 c -3.99,-0.79 -8.22,1.61 -9.16,5.66 -0.18,0.53 -0.39,1.65 -0.03,2.01 0.09,0.06 0.51,-0.05 0.91,-0.15 1.37,-0.37 2.23,0.45 2.05,1.9 -0.51,4.97 -3.75,9.47 -2.36,14.5 0.33,1.45 0.86,2.92 1.49,4.33 0,0 -0.2,-0.13 -0.2,-0.13 l 6.38,1.61 c 7.94,0.96 16.57,0.61 24.51,-1.23 4,-0.94 7.91,-2.28 11.69,-3.93 2.76,-1.28 5.6,-2.66 7.64,-4.94 0.66,-0.71 1.27,-1.53 1.65,-2.31 1.94,-2.93 4.01,-5.8 6,-8.68 0,0 0.38,-0.59 0.38,-0.59 l 0.15,-0.24 c 0,0 0.03,-0.06 0.03,-0.02 0,0 0,0.04 0,0.04 -0.09,0.52 0.35,1.11 0.93,1.16 0,0 0.63,-0.12 0.63,-0.12 -2.24,1.78 -5.4,5 -7.5,7.06 -2.96,2.75 -5.21,5.22 -9.23,7.14 0,0 -2.72,1.2 -2.72,1.2 l -1.62,-2.27 c -2.68,-3.81 -3.2,-7.79 -7,-10.5 -1.04,-0.85 -2.2,-1.65 -3.39,-2.4 l 0.29,0.11 c -1.85,-0.72 -3.68,-1.42 -5.51,-2.16 -1.82,-0.74 -3.68,-1.44 -5.45,-2.46 -3.3,-2.15 -6.64,-4 -10.56,-4.57 v 0 z m 0.03,-0.21 c 6.05,0.38 10.7,4.26 16.61,5.18 1.9,0.39 3.82,0.75 5.73,1.03 3.04,1.12 5.98,2.23 8.74,4.15 2.42,1.58 4.26,4.43 6.64,5.61 0,0 -4.34,-1.07 -4.34,-1.07 2.6,-0.22 6,-2 8.6,-3.23 2.98,-1.47 6.91,-3.58 10.05,-4.69 0.44,0.02 0.92,0.22 1.11,0.63 0.27,0.44 0.11,0.89 0,1.27 -1.7,3.67 -4.19,6.88 -6.6,10.09 0,0 0.15,-0.27 0.15,-0.27 -0.32,0.7 -0.75,1.07 -1.26,1.56 -2.99,2.28 -6.46,3.8 -9.83,5.33 -7.62,3.41 -15.87,5.38 -24.23,5.64 -4.18,0.17 -8.36,0.04 -12.52,-0.52 0,0 -6.37,-1.65 -6.37,-1.65 -2.65,-2.18 -4.34,-5.98 -3.94,-9.46 0.28,-2.59 1.31,-4.79 2.33,-7.05 0.41,-0.94 1.53,-2.86 1.6,-3.79 -0.17,-0.28 -0.97,-0.14 -1.3,-0.16 -0.22,0 -0.53,0 -0.8,-0.25 -0.41,-0.46 -0.27,-0.92 -0.21,-1.41 1.14,-4.6 5.04,-7.61 9.83,-6.95 v 0 z"
       id="path313" />
  </g>
  <g
     id="g321"
     transform="translate(-8.4199982)">
    <path
       class="cls-17"
       d="m 44.6,99.4 c 2.89,-1.83 3.11,2.22 3.11,2.22 0,0 1,2.17 0.89,4 -0.11,1.83 -1.8,9.7 -1.48,11.41 0.32,1.71 1.81,4.74 2.37,5.78 0.56,1.04 3.06,3.09 4.94,2.59 0.17,1.44 -1.72,6.89 -1.72,6.89 0,0 -9.22,-4.5 -12.83,-6.83 -3.61,-2.33 -7.72,-5.91 -7.72,-5.91 0,0 3,-12.65 12.44,-20.15 z"
       id="path317" />
    <path
       class="cls-15"
       d="m 44.59,99.39 c 2.1,-1.4 3.04,0.65 3.31,2.14 1.61,1.93 1.9,4.68 1.6,7.1 -0.13,2.73 -0.56,5.31 -0.61,7.91 0.28,1.5 1.04,3.07 1.61,4.58 0.33,0.91 0.64,1.62 1.41,2.32 0.7,0.68 1.49,1.27 2.37,1.41 0,0 0.59,-0.18 0.59,-0.18 0.68,2.81 -1.07,5.58 -1.94,8.16 -7.68,-3.51 -15.35,-7.25 -21.73,-12.89 0.22,-2.29 1.23,-4.32 2.17,-6.37 2.63,-5.46 6.37,-10.49 11.22,-14.16 v 0 z m 0.01,0.02 c -6.19,5.16 -9.31,12.84 -11.58,20.34 0,0 -0.28,-0.88 -0.28,-0.88 2.99,2.63 6.07,5.24 9.52,7.26 3.46,2.05 7.04,3.94 10.62,5.81 l -0.53,0.22 c 0,0 0.83,-3.44 0.83,-3.44 0.26,-1.02 0.46,-2.3 0.67,-3.25 0,0 0.73,0.5 0.73,0.5 -2.06,0.89 -4.3,-0.23 -5.85,-1.62 -0.47,-0.42 -0.89,-1.2 -1.23,-1.74 -1.24,-2.23 -2.62,-4.79 -2.13,-7.49 0.41,-3.48 1.61,-6.84 2.34,-10.09 0.11,-1.03 -0.01,-2.24 -0.22,-3.39 0.14,-1.83 -0.98,-3.58 -2.89,-2.22 v 0 z"
       id="path319" />
  </g>
  <path
     class="cls-15"
     d="m 26.680002,121.12 3.94,0.44 4.61,-5.83 -0.94,3.83 c 0,0 1.89,0 3.72,-6.17 1.83,-6.17 1.72,-7.33 1.72,-7.33 l -0.83,14.11 c 0,0 5.28,5.39 6.28,5.78 1,0.39 0.33,1.61 0.33,1.61 l -1.33,4.33 -3.5,-1.28 -12.44,-7.11 -1.56,-2.39 z"
     id="path323" />
  <path
     class="cls-15"
     d="m 40.400002,118.4 c 0,0.17 0.5,1.83 1.83,0.28 1.33,-1.55 1.72,-3.17 1.72,-3.17 l 0.61,2.11 c 0,0 1.44,-0.61 1.17,-4.17 0,0 0.61,2.56 1.28,1.89 0.67,-0.67 1.94,-4.5 1.94,-4.5 l 0.56,2.93 c 0,0 -2.5,13.3 -3.67,14.96 -1.17,1.66 -4.89,-3.94 -4.89,-3.94 l -0.56,-6.39 z"
     id="path325" />
  <path
     class="cls-5"
     d="m 78.740002,131.9 0.56,-1.5 1.94,0.11 c 0,0 1.28,1.89 2.5,2.06 1.22,0.17 -0.83,0.89 -0.83,0.89 0,0 -3.28,0.33 -4.17,-1.56 z"
     id="path327" />
  <path
     class="cls-15"
     d="m 52.770002,119.92 c 0,0 -0.74,2.67 0.52,6.44 1.26,3.77 3.04,4.67 3.04,4.67 l 0.37,-3.11 c 0,0 0.07,2.07 1.93,3.7 1.86,1.63 7.33,0.37 7.33,0.37 l -0.81,-2.44 -1.19,-3.41 c 0,0 2.96,3.78 4.81,4.44 0,0 9.07,0.87 9.41,-0.74 -1.56,-1.33 -3.78,-3.48 -3.78,-3.48 l -1.11,-1.19 5.5,4.06 c 0,0 5.41,-1.48 5.33,-3.78 -0.08,-2.3 -2.61,-4.11 -2.39,-4.56 0.22,-0.45 2.94,3.56 3.33,3.28 0.39,-0.28 -3.94,-5.61 -3.78,-5.67 0.16,-0.06 4.61,4 4.61,4 0,0 2.69,-0.2 1.06,-2.94 -1.63,-2.74 -6.44,-4.83 -6.44,-4.83 l 8.04,3.41 c 0,0 9.11,9.11 9.63,8.89 0.52,-0.22 9.259998,-7.63 9.259998,-7.63 l -1.41,4.59 -4.81,4.89 c 0,0 -19.109998,10.81 -36.669998,7.93 l -11.33,-1.85 -2.59,-5.33 2.15,-9.7 z"
     id="path329" />
  <text
     class="cls-3"
     transform="rotate(-70.32)"
     id="text333"
     x="-49.41404"
     y="37.926346"><tspan
       x="-49.41404"
       y="37.926346"
       id="tspan331">Z</tspan></text>
  <text
     class="cls-3"
     transform="rotate(-57.73)"
     id="text337"
     x="-25.515936"
     y="44.886272"><tspan
       x="-25.515936"
       y="44.886272"
       id="tspan335" /></text>
  <text
     class="cls-3"
     transform="rotate(-45.07)"
     id="text341"
     x="-7.9490991"
     y="47.295769"><tspan
       x="-7.9490991"
       y="47.295769"
       id="tspan339">Z</tspan></text>
  <text
     class="cls-3"
     transform="rotate(-32.44)"
     id="text345"
     x="17.016611"
     y="45.000084"><tspan
       x="17.016611"
       y="45.000084"
       id="tspan343" /></text>
  <text
     class="cls-3"
     transform="rotate(-19.95)"
     id="text349"
     x="33.493237"
     y="38.178986"><tspan
       x="33.493237"
       y="38.178986"
       id="tspan347">Z</tspan></text>
  <circle
     class="cls-7"
     cx="103.96"
     cy="48.400002"
     r="6.8899999"
     id="circle351" />
  <path
     class="cls-2"
     d="m 111.03,52.21 c -1.46,2.52 -2.31,-3.53 -5.81,-5.56 -3.5,-2.03 -8.419998,0.34 -6.959998,-2.19 1.46,-2.53 6.249998,-4.39 9.759998,-2.36 3.51,2.03 4.48,7.58 3.02,10.1 z"
     id="path353" />
  <path
     class="cls-6"
     d="m 100.96,43.84 c -0.91,0.1 4.11,0.78 6.44,3.33 2.33,2.55 2.89,5.11 2.89,5.11 l -0.44,1.89 c 0,0 0.22,1.44 1.22,1.89 0.2,0.09 -0.11,-0.56 -0.04,-1.04 0.44,0.07 1.32,0.26 1.52,-0.05 1.07,-1.63 1.69,-4.8 -1.6,-7.77 -4.03,-3.64 -4.98,-3.93 -10,-3.37 z"
     id="path355" />
  <path
     class="cls-4"
     d="m 97.140002,45.55 c 1.11,-1.81 5.159998,-2.43 8.669998,-0.41 3.51,2.02 6.27,6.44 4.81,8.96 -1.46,2.52 -7.2,3.32 -10.699998,1.3 -3.5,-2.02 -4.3,-7.37 -2.78,-9.85 z"
     id="path357" />
  <path
     class="cls-10"
     d="m 109.29,54.03 c -1.74,0.56 -0.74,-1.56 -1.11,-2.85 -0.31,-1.1 -1.22,-2.93 -0.74,-3.22 0.95,-0.58 1.85,0.72 2.3,1.78 0.74,1.74 1.3,3.74 -0.44,4.3 z"
     id="path359" />
  <path
     class="cls-21"
     d="M 68.830002,1 C 106.23,1 136.67,31.43 136.67,68.84 c 0,37.41 -30.43,67.84 -67.839998,67.84 -37.41,0 -67.8300002,-30.44 -67.8300002,-67.84 C 1.0000018,31.44 31.430002,1 68.830002,1 m 0,-1 C 30.820002,0 1.8310547e-6,30.82 1.8310547e-6,68.84 1.8310547e-6,106.86 30.820002,137.68 68.840002,137.68 106.86,137.68 137.68,106.86 137.68,68.84 137.68,30.82 106.85,0 68.830002,0 Z"
     id="path361" />
  <g
     id="g367"
     transform="translate(-8.4199982)">
    <path
       class="cls-13"
       d="m 83.41,22.44 c 0,0 1.48,-0.59 3.19,0.22 1.71,0.81 0.89,1.78 1.7,2.67"
       id="path363" />
    <path
       class="cls-22"
       d="m 83.38,22.34 c 1.52,-0.76 4.08,-0.43 4.73,1.34 0.16,0.65 0.05,1.06 0.27,1.57 l -0.15,0.14 c -0.53,-0.25 -0.71,-1 -0.86,-1.47 -0.64,-1.29 -2.54,-1.59 -3.92,-1.39 0,0 -0.07,-0.19 -0.07,-0.19 z"
       id="path365" />
  </g>
  <g
     class="cls-9"
     id="g373"
     transform="translate(-8.4199982)">
    <path
       class="cls-19"
       d="m 97.79,13.47 c 0,3.64 -2.95,6.59 -6.59,6.59 -0.72,0 -1.42,-0.12 -2.07,-0.33 -0.28,-0.09 -2.02,2.19 -2.05,2.11 -0.03,-0.08 0.79,-2.67 0.59,-2.8 -1.84,-1.17 -3.06,-3.23 -3.06,-5.57 0,-3.64 2.95,-6.59 6.59,-6.59 3.64,0 6.59,2.95 6.59,6.59 z"
       id="path369" />
    <path
       class="cls-14"
       d="m 98.42,13.47 c 0.35,4.72 -4.99,8.96 -9.45,6.95 -0.02,-0.01 -0.05,-0.02 -0.07,-0.03 0.03,0.01 0.12,0.03 0.19,0.03 0.23,-0.02 0.23,-0.06 0.25,-0.06 -0.56,0.36 -1.56,1.05 -2.07,1.54 -0.08,0.06 -0.01,0.05 -0.18,0.1 -0.23,-0.06 -0.16,-0.16 -0.17,-0.14 0,-0.05 0,-0.09 0.02,-0.14 0.29,-0.79 0.15,-1.74 0.17,-2.55 0,0.08 0.05,0.19 0.11,0.26 0.08,0.09 0.19,0.15 0.08,0.08 -3.15,-1.96 -3.74,-6.54 -1.85,-9.52 3.53,-6.03 12.8,-3.51 12.98,3.48 v 0 z m -1.28,0 c 0.2,-3.64 -3.32,-6.8 -6.97,-6.23 -5.94,0.8 -7.24,8.22 -2.21,11.29 0.59,0.39 0.2,1.29 -0.09,1.77 -0.3,0.5 -0.57,0.98 -0.65,1.54 -0.01,-0.02 0.05,-0.1 -0.16,-0.16 -0.14,0.04 -0.06,0.02 -0.07,0.02 l 0.02,-0.03 c 0.62,-0.79 0.78,-1.89 1.67,-2.51 0.08,-0.03 0.13,-0.1 0.42,-0.12 3.85,0.9 7.84,-1.39 8.04,-5.57 z"
       id="path371" />
  </g>
  <g
     class="cls-12"
     id="g377"
     transform="translate(-8.4199982)">
    <path
       class="cls-26"
       d="m 96.31,13.36 c 0.04,2.94 -4.3,2.85 -4.24,0 0.13,-2.66 4.08,-2.72 4.24,0 z m -0.45,0 c 0.04,-2.47 -3.6,-2.53 -3.61,0 0.17,2.33 3.44,2.25 3.61,0 z"
       id="path375" />
  </g>
  <ellipse
     class="cls-27"
     cx="54.345089"
     cy="68.423592"
     rx="0.77999997"
     ry="0.93000001"
     transform="rotate(-45)"
     id="ellipse379" />
  <ellipse
     class="cls-27"
     cx="43.606796"
     cy="69.782318"
     rx="0.77999997"
     ry="0.93000001"
     transform="rotate(-45)"
     id="ellipse381" />
  <ellipse
     class="cls-27"
     cx="20.598036"
     cy="82.85685"
     rx="0.47"
     ry="0.55000001"
     transform="rotate(-69.94)"
     id="ellipse383" />
  <ellipse
     class="cls-18"
     cx="20.382494"
     cy="72.711449"
     rx="0.47"
     ry="0.55000001"
     transform="rotate(-69.94)"
     id="ellipse385" />
  <g
     class="cls-9"
     id="g391"
     transform="translate(-8.4199982)">
    <circle
       class="cls-19"
       cx="81.889999"
       cy="6.3899999"
       r="2.55"
       id="circle387" />
    <path
       class="cls-14"
       d="m 83.99,8.78 c -3.23,3.11 -7.37,-1.76 -3.93,-4.47 3.12,-2.15 6.51,1.65 3.93,4.47 z M 83.15,7.82 c 2.38,-1.74 -0.74,-5.35 -2.8,-3.18 -1.63,1.81 0.89,4.39 2.8,3.18 z"
       id="path389" />
  </g>
  <ellipse
     class="cls-24"
     cx="74.689011"
     cy="100.9724"
     rx="3.4100001"
     ry="4.6700001"
     transform="rotate(-22.34)"
     id="ellipse393" />
  <ellipse
     class="cls-24"
     cx="32.362587"
     cy="119.77574"
     rx="3.4100001"
     ry="4.6700001"
     transform="rotate(-22.34)"
     id="ellipse395" />
  <ellipse
     class="cls-24"
     cx="-92.043892"
     cy="76.46682"
     rx="1.39"
     ry="1.01"
     transform="rotate(-86.21)"
     id="ellipse397" />
  <ellipse
     class="cls-24"
     cx="-33.672726"
     cy="94.552017"
     rx="1.39"
     ry="1.01"
     transform="rotate(-45)"
     id="ellipse399" />
  <ellipse
     class="cls-24"
     cx="70.440086"
     cy="99.889572"
     rx="1.62"
     ry="2.22"
     transform="rotate(-21.48)"
     id="ellipse401" />
  <ellipse
     class="cls-24"
     cx="-65.66777"
     cy="78.662346"
     rx="2.22"
     ry="1.62"
     transform="rotate(-63.35)"
     id="ellipse403" />
  <ellipse
     class="cls-24"
     cx="101.94"
     cy="61.77"
     rx="1.24"
     ry="1.7"
     id="ellipse405" />
  <ellipse
     class="cls-24"
     cx="65.171585"
     cy="107.37413"
     rx="0.83999997"
     ry="1.15"
     transform="rotate(-30)"
     id="ellipse407" />
  <path
     class="cls-1"
     d="m 62.630002,28.56 c -0.76,1.3 0.35,4.06 1.03,4.02 0.68,-0.04 -0.28,-2.44 0.39,-3.94 0.67,-1.5 -0.65,-1.37 -1.41,-0.08 z"
     id="path409" />
  <path
     class="cls-5"
     d="m 82.460002,129.57 c 0,0 3.28,-2.39 3.17,-3.33 l 1.61,-0.06 -0.44,-2.44 c 0,0 2.78,-0.11 2.5,-2.22 0,0 0,-2.22 -0.67,-2.44 0,0 2.33,0.28 4.44,2.61 2.11,2.33 2.33,1.83 2.33,1.83 0,0 -0.28,3.06 -2.33,3.78 -2.05,0.72 -2.5,0.39 -2.5,0.39 0,0 0.78,0.56 3.44,-0.06 l -2.22,2 c 0,0 -4.83,2.28 -9.33,-0.06 z"
     id="path411" />
</svg>
